<?xml version="1.0" encoding="utf-8"?>
<!-- Generator: Adobe Illustrator 19.2.0, SVG Export Plug-In . SVG Version: 6.00 Build 0)  -->
<svg version="1.1" xmlns="http://www.w3.org/2000/svg" xmlns:xlink="http://www.w3.org/1999/xlink" x="0px" y="0px"
	 viewBox="0 0 410.1 368.3" style="enable-background:new 0 0 410.1 368.3;" xml:space="preserve">
<style type="text/css">
	.st0{fill:none;stroke:#433F22;stroke-width:2;stroke-miterlimit:10;}
	.st1{fill:#CCECF6;}
	.st2{fill:#F7D4D1;}
	.st3{fill:#FAEB8B;}
	.st4{fill:none;stroke:#353535;stroke-width:2;stroke-miterlimit:10;}
	.st5{fill:none;stroke:#0C9FD2;stroke-width:2;stroke-miterlimit:10;}
	.st6{fill:#FFE36C;}
	.st7{opacity:0.3;fill:#009FD1;}
	.st8{opacity:0.3;}
	.st9{fill:#D63227;}
	.st10{fill:#EEEDED;}
	.st11{fill:#009FD1;}
	.st12{opacity:0.7;fill:#D63227;}
	.st13{fill:none;stroke:#FFFFFF;stroke-width:2;stroke-miterlimit:10;}
	.st14{opacity:0.3;fill:#D63227;}
	.st15{opacity:0.3;fill:#B2D235;}
	.st16{fill:#FFFFFF;stroke:#353535;stroke-width:2;stroke-miterlimit:10;}
</style>
<g id="Layer_1">
	<polygon class="st3" points="77.1,256.9 250.7,363.4 46.4,299.6 	"/>
	<path class="st2" d="M85.3,243l171.9,116.3l3.8,3.7c1.2,1.1,0,3.1-1.6,2.5l-7.1-2.6L107.1,275L85.3,243z"/>
	<g>
		<g>
			<path class="st1" d="M288.9,87.3c0-7.1-4.8-13.4-11.7-14.9c-3-0.6-5.9-0.3-8.5,0.7c-2.9-14-15.3-24.5-30.1-24.5
				c-12.5,0-23.3,7.5-28.1,18.3c-0.9-0.1-1.7-0.2-2.6-0.2c-11.1,0-20,9-20,20l0,0c0,7.6,6.1,13.7,13.7,13.7h74.1
				C282.9,100.5,288.9,94.6,288.9,87.3L288.9,87.3z"/>
		</g>
		<g>
			<path class="st1" d="M408.4,246.8c0-10-6.7-18.9-16.5-21c-4.3-0.9-8.3-0.4-11.9,1c-4.1-19.7-21.5-34.5-42.4-34.5
				c-17.7,0-32.9,10.6-39.6,25.8c-1.2-0.2-2.4-0.3-3.7-0.3c-15.6,0-28.3,12.7-28.3,28.3l0,0c0,10.7,8.6,19.3,19.3,19.3h104.5
				C400.1,265.5,408.4,257.1,408.4,246.8L408.4,246.8z"/>
		</g>
		<g>
			<path class="st4" d="M280.6,78.9c0-7.1-4.8-13.4-11.7-14.9c-3-0.6-5.9-0.3-8.5,0.7c-2.9-14-15.3-24.5-30.1-24.5
				c-12.5,0-23.3,7.5-28.1,18.3c-0.9-0.1-1.7-0.2-2.6-0.2c-11.1,0-20,9-20,20l0,0c0,7.6,6.1,13.7,13.7,13.7h74.1
				C274.6,92.2,280.6,86.2,280.6,78.9L280.6,78.9z"/>
		</g>
		<g>
			<path class="st4" d="M400.1,238.5c0-10-6.7-18.9-16.5-21c-4.3-0.9-8.3-0.4-11.9,1c-4.1-19.7-21.5-34.5-42.4-34.5
				c-17.7,0-32.9,10.6-39.6,25.8c-1.2-0.2-2.4-0.3-3.7-0.3c-15.6,0-28.3,12.7-28.3,28.3l0,0c0,10.7,8.6,19.3,19.3,19.3h104.5
				C391.8,257.2,400.1,248.8,400.1,238.5L400.1,238.5z"/>
		</g>
		<g>
			<line class="st4" x1="311.3" y1="92.2" x2="366" y2="92.2"/>
			<line class="st4" x1="302.5" y1="92.2" x2="292.5" y2="92.2"/>
		</g>
		<line class="st4" x1="186.8" y1="152" x2="208.8" y2="152"/>
		<g>
			<path class="st5" d="M228.4,95.4c9.3,18,25.6,35,47.6,32.7"/>
			<path class="st5" d="M327.6,44.2c0,0,27.9,31.7-0.4,61.3"/>
			<path class="st5" d="M40.3,223.6c8.1,7.1,17.1,13.2,26.8,18.2"/>
			<path class="st5" d="M1.6,146.7c1.1,21.4,8.8,41.6,21.7,58.7"/>
			<path class="st5" d="M92.8,11.8C73.2,22.6,59.9,43.1,57.4,65.2c-1.9,16.5,9.6,67.3,35.5,47.7c16.3-12.4,15.6-35.2,1.3-48.6
				C78.8,50,56.5,51,39.7,62c-20,13-32.4,37.1-36.6,60.1"/>
			<path class="st5" d="M186.8,38.9c-16.4-21.6-43.1-37.8-71-34.5"/>
		</g>
		<path class="st4" d="M77.1,256.9l176.7,106.9l-213-29.2c-8.1-1.1-12.1-10.4-7.3-17.1L77.1,256.9z"/>
		<path class="st4" d="M85.3,243l171.2,115.4l-102-167.3c-3.7-6.1-12.1-7-17.1-1.9L85.3,243z"/>
		<line class="st4" x1="85.3" y1="243" x2="106.4" y2="273.6"/>
		<path class="st4" d="M255.7,357.8l5,4.9c1.1,1.1,0.1,2.9-1.4,2.6l-6.1-1.5"/>
	</g>
</g>
<g id="Layer_2">
</g>
</svg>
