<?xml version="1.0" encoding="utf-8"?>
<!-- Generator: Adobe Illustrator 19.2.0, SVG Export Plug-In . SVG Version: 6.00 Build 0)  -->
<svg version="1.1" xmlns="http://www.w3.org/2000/svg" xmlns:xlink="http://www.w3.org/1999/xlink" x="0px" y="0px"
	 viewBox="0 0 441.3 487.6" style="enable-background:new 0 0 441.3 487.6;" xml:space="preserve">
<style type="text/css">
	.st0{fill:none;stroke:#433F22;stroke-width:2;stroke-miterlimit:10;}
	.st1{fill:#CCECF6;}
	.st2{fill:#F7D4D1;}
	.st3{fill:#FAEB8B;}
	.st4{fill:none;stroke:#353535;stroke-width:2;stroke-miterlimit:10;}
	.st5{fill:none;stroke:#0C9FD2;stroke-width:2;stroke-miterlimit:10;}
	.st6{fill:#FFE36C;}
	.st7{opacity:0.3;fill:#009FD1;}
	.st8{opacity:0.3;}
	.st9{fill:#D63227;}
	.st10{fill:#EEEDED;}
	.st11{fill:#009FD1;}
	.st12{opacity:0.7;fill:#D63227;}
	.st13{fill:none;stroke:#FFFFFF;stroke-width:2;stroke-miterlimit:10;}
	.st14{opacity:0.3;fill:#D63227;}
	.st15{opacity:0.3;fill:#B2D235;}
	.st16{fill:#FFFFFF;stroke:#353535;stroke-width:2;stroke-miterlimit:10;}
</style>
<g id="Layer_1">
	<path class="st1" d="M303.4,351.7c4.3-1.7,7.6-0.8,11.2,1.9c4.3,3.3,9.9,5.3,14.9,7.4c10,4.2,20,6.6,30.6,7.8
		c0.8-0.9,1.6-1.8,2.4-2.7c0-5,2-9.9,4.6-14.7c3.5-6.5,8.8-10.7,15.5-13.8c0.1,0,0.1,0,0.2-0.1c0.9-1.6,1.7-3.1,2.6-4.7
		c-2.6-5.3-4.6-11.1-8-16c-3.3-4.7-7.6-9-11.2-13.5c-1.9-2.4-3.7-4.3-6.2-6.1c-1.6-1.1-3.3-2.3-4.6-3.8c-3.2-3.9-2.2-8.1-0.1-12.2
		c1-2,2.8-2.3,4.4-1.7c1.1-1.2,2.8-1.7,4.6-0.6c3.3,2.1,5.6,5,8.3,7.7c1.5,1.5,3.2,2.8,4.7,4.1c0.8,0,1.7,0.3,2.5,1
		c6.2,5.7,10.3,13,14.9,19.9c6.4-17.8,9.9-37,9.9-57c0-19.1-3.2-37.5-9-54.6c-4.7,6.7-11.2,11.6-18.1,16.2
		c-5.4,3.6-13.8,9.5-18.8,1.7c-5.4-8.4,5.6-13.3,10.9-17.2c3.9-2.9,7.8-5.4,11.1-9.1c1.4-1.6,2.9-2.9,4.4-4.4
		c1.5-1.5,2.4-3.1,3.3-4.9c-8.6-18.1-20.2-34.4-34.3-48.3c-7.6,1.9-15.8,3.5-23.2,6.4c-3.1,1.2-5.4,3.8-8.9,4
		c-2.6,0.1-5.3-0.9-7.2-2.7c-12.7-12,15.8-20.2,23.2-21.6c-17.5-13.3-37.6-23.4-59.5-29.1c0.8,4.4,0.8,9,0.6,13.3
		c0.4,0.6,0.7,1.4,0.7,2.1c0,0.7,0.1,1.3,0,2c-0.2,1.7-0.9,3.7-2.6,4.4c-0.2,0.1-0.3,0.2-0.5,0.2c-1,1.2-2.3,2.1-4,2.5
		c-3.2,0.6-5.7-0.9-7.3-3.2c-0.7-0.3-1.3-0.9-1.7-1.5c0-0.1-0.1-0.2-0.1-0.2c-0.3-0.4-0.6-0.9-0.8-1.4c0-0.3-0.1-0.7-0.1-1
		c0-0.7,0.2-1.4,0.6-2c-1-6.2-1.1-13-3.1-18.9c-8-1.2-16.2-1.8-24.6-1.8c-14.8,0-29.2,1.9-43,5.5c-1.3,5.6-2,11.3-3.5,16.7
		c-1,3.5-3,7.2-7,7.7c-4.2,0.5-8-3-9-6.8c-1-3.8-0.1-7.9,1.1-11.6c-6.3,2.5-12.5,5.3-18.4,8.5c1.9,1.1,3.4,2.6,4.1,5
		c0.8,3,0.1,6-2.5,7.9c-6,4.3-13.9,0.9-20.2-1.3c-22.4,16-40.6,37.4-53,62.2c0.3,0.3,0.6,0.7,0.9,1.2c2.1,4.6,7.1,6.6,10.3,10.4
		c3,3.5,5.2,9.4,1.5,13.3c-3.5,3.6-9.1,2.2-12.7-0.4c-2.8-2-5.5-4-7.7-6.4c-6.5,17.9-10,37.2-10,57.3c0,12.4,1.4,24.5,3.9,36.2
		c8.2-4,18-5.9,27-7.2c6.7-0.9,16.6-2.3,18.1,6.8c1.5,9.1-8.4,9.4-14.6,9.7c-9,0.5-17.5,3.9-26,6.9c4.4,13.6,10.5,26.4,18.1,38.2
		c6.6-4.4,13.5-9.6,19-15.4c4.1-4.2,6.3-10.4,12.9-10.7c1-0.1,1.7,0.2,2.3,0.6c0.6,0,1.2,0.2,1.9,0.5c2.9,1.7,3.8,5.1,3.6,8.3
		c-0.1,1.7-0.5,3.3-1.5,4.7c-0.8,1.2-2,2.1-2.6,3.5c-0.4,0.9-1.2,1.5-2.2,1.7c-3.1,4-7,7.2-10.5,10.9c-3.4,3.5-7.3,7.6-11.5,10
		c-0.4,0.2-0.7,0.3-1.1,0.4c19.6,24.6,45.9,43.6,76.2,54.3c-0.5-3.4-2-6.3-2.7-9.7c-0.8-3.8-1.4-7.4-2.4-11.1
		c-1.6-6.2-2.9-15.2,0.6-20.9c0.6-0.9,1.4-1.5,2.2-1.7c0.2-0.1,0.4-0.2,0.6-0.3c0.6-0.5,1.4-0.7,2.2-0.7c0.1,0,0.2,0,0.3,0
		c1.1-0.7,2.5-0.9,3.9-0.2c7.5,3.8,6.1,13.9,7.3,21c1.8,10.5,4.5,20.1,9.3,29.6c4.2,0.9,8.4,1.6,12.7,2.2c3.6-2.4,8.6-2.5,12.9-2.4
		c4.9,0.1,10.8,0,14.6,3.7c0,0,0,0,0,0c3.2-0.1,6.3-0.3,9.4-0.6c0-0.1,0.1-0.2,0.1-0.3c5.5-10,9.6-19.9,11.9-31.2
		c1.3-6.5-1.7-18.1,6-20.5c0.8-1.3,2.2-2,4.1-1.3c6.2,2.3,7,5.1,6.5,11.5c-0.6,7.5-1.8,15-3.6,22.3c-0.9,3.8-2.2,7.4-3.6,11
		c-0.7,1.8-1.1,3.7-1.6,5.6c27.2-5.7,52-17.9,72.7-34.9c-4.3-1.5-8.5-3.5-12.7-5.3c-5.6-2.4-10.8-5.2-16.1-8.1
		c-3.4-1.4-6.7-3.1-10.1-4.9c-0.9-0.5-1.5-1.2-1.7-1.9c-0.5-0.2-0.9-0.5-1.3-0.9c-3.4-2.8-2.3-7.2,0.3-10
		C301.4,353.2,302.2,352.2,303.4,351.7z M145,198.9c-15.6,0-15.6-24.3,0-24.3C160.6,174.6,160.6,198.9,145,198.9z M253.1,322
		c-7.8-0.1-15.6,0.1-23.4,0c-6.9,0-13.8-0.6-20.8-0.8c0.8,9.1,0.1,18.2,0.5,27.4c0.2,4.7,1.3,9.2,0.8,13.9
		c-0.6,4.6-0.9,9.1-1.1,13.7c-0.3,5-8.1,5-7.8,0c0.3-4.5,0.3-8.7,1-13.1c0.8-4.9-0.4-9.7-0.6-14.5c-0.5-10,0.4-20.1-0.8-30.1
		c-0.2-1.4,0.3-2.4,1.1-3c0.5-1.2,1.7-2.2,3.4-2.2c8.1,0.1,16.2,0.9,24.3,0.9c7.8,0.1,15.6-0.1,23.4,0
		C258.1,314.3,258.1,322.1,253.1,322z M295.2,227.6l-4.5,4.2L265,197.5l40.3-26.8l6.6,5.5l-0.4,1.4l11.4-6.8l21.3,35.7l-45.5,27.2
		L295.2,227.6z"/>
	<path class="st3" d="M387.7,151.6c-1-3.5-3.1-6.9-3.5-10.5c-0.1-1.2,0.1-2.2,0.2-3.4c0.4-3.1,0.5-2.5-1-4.4
		c-0.6-0.7-1.1-1.4-1.5-2.1c-3.1,8.5-2.6,18.2,2.2,26.6c1.3,2.3,2.9,4.3,4.6,6.1C389.8,159.9,388.7,155.7,387.7,151.6z"/>
	<path class="st3" d="M49.5,319.4c-3.3,12.4-1.7,25.1,9.2,33.2c2.5,1.9,5.3,3.4,8.2,4.7c1,0.4,3.1,1.6,4.2,1.6
		c1.5,0.1,1.6-0.7,2.6-2.2c1.9-2.8,3.7-3.1,6.1-4.4c0.3-5.8-1-11.8-4.2-17.3C70,325.3,60,319.7,49.5,319.4
		C49.5,319.4,49.5,319.4,49.5,319.4z"/>
	<path class="st3" d="M403.6,402.1c-8.3,1.6-17.2-0.2-24.5-5.6c-13.9-10.3-16.9-30-6.6-43.9c10.3-13.9,30-16.9,43.9-6.6
		c10.6,7.9,14.8,21.1,11.7,33.2"/>
	<path class="st3" d="M83,98.3c-5.9,4.5-5,13.8-5.5,20.6c-0.2,3.6-3,4.2-4.5,7.4c-2.8,6-1.1,11.8,1.6,17.4c0.3,0.5,0.1,1.1-0.4,1.4
		c-2.6,1.9-4.5,3.9-7.4,4.9c0.2,0.9,0.4,1.7,0.7,2.6c12.1-2.2,22.3-11.4,25.1-24.2C95.1,116.9,91.1,105.6,83,98.3z"/>
	<path class="st3" d="M199.3,452c1.5,3.1,3.9,3.5,5.6,0.4c0.7-1.2,0.6-3.3,1-4.7c1-4.2,2.7-10.1,6.4-12.8c3.9-2.7,9.9,0.1,14,0.4
		c7.5,0.6,13.6-1.4,17.1-7.9c-4.2-2.1-9-3.3-14-3.3c-15.3,0-28.1,11-30.8,25.5C198.7,450.5,199,451.3,199.3,452z"/>
	<path class="st3" d="M212.7,11.2c5-3.4,11.1-5.4,17.6-5.4c17.3,0,31.4,14.1,31.4,31.4s-14.1,31.4-31.4,31.4s-31.4-14.1-31.4-31.4
		c0-2.9,0.4-5.6,1.1-8.3"/>
	<path class="st0" d="M391.6,210.1c2.8,12.2,3.2,19.9,3.2,32.9c0,19.5-3.3,38.2-9.4,55.7"/>
	<path class="st0" d="M354.2,133.1c13.1,15.3,23.5,33,30.5,52.3"/>
	<path class="st0" d="M275.9,81.4c23.8,7.4,45.4,20,63.4,36.4"/>
	<path class="st0" d="M195.4,76.3c9.7-1.7,19.8-2.7,30-2.7c10.6,0,20.9,1,31,2.8"/>
	<path class="st0" d="M136.8,98.7C149,91.2,162.1,85.2,176,81"/>
	<path class="st0" d="M73.9,167.3c9.1-18.2,21.4-34.5,36.2-48.2"/>
	<path class="st0" d="M66,185.8c-6.4,17.9-9.9,37.1-9.9,57.2c0,12.9,1,25.6,4.2,37.5c2,7.7,3.7,12.3,3.7,12.3"/>
	<path class="st0" d="M91.3,346.4c-8.6-11.2-15.9-23.4-21.5-36.5"/>
	<path class="st0" d="M176.1,405.1c-25.1-7.6-46.7-22.1-66.4-38.4"/>
	<path class="st0" d="M255.9,409.6c-9.9,1.8-20.1,2.7-30.5,2.7c-10.1,0-20-0.9-29.6-2.6"/>
	<path class="st0" d="M326.4,378.9c-15.2,11.3-32.4,20.2-51,25.9"/>
	<path class="st0" d="M377.7,317.2c-9,18.4-21.1,34.9-35.8,48.8"/>
	<ellipse transform="matrix(0.866 -0.5 0.5 0.866 -14.5169 222.1426)" class="st0" cx="407.2" cy="138.2" rx="31.4" ry="31.4"/>
	<path class="st0" d="M376.4,132.2c-18.6-1.5-35.3,2.4-52,11.1c-3.7,1.9-8.1,0.9-10.6-2.4c0,0-0.1-0.1-0.1-0.1
		c-3.1-4.2-1.8-10.2,2.9-12.6c19.7-9.9,43.6-16.8,70-13.5"/>
	<path class="st0" d="M396.6,167.3c-8,16.9-19.7,29.3-35.6,39.4c-3.5,2.2-4.8,6.6-3.2,10.4c0,0.1,0,0.1,0.1,0.2
		c2.1,4.8,8,6.6,12.3,3.8c18.4-12.1,36.4-28.7,46.8-53.2"/>
	<ellipse transform="matrix(0.866 -0.5 0.5 0.866 -167.4148 68.6881)" class="st0" cx="44.5" cy="346.7" rx="31.4" ry="31.4"/>
	<path class="st0" d="M74.9,354.4c17.5-6.6,30.9-17.2,42.3-32.2c2.5-3.3,7-4.3,10.6-2.3c0.1,0,0.1,0.1,0.2,0.1
		c4.6,2.4,5.9,8.5,2.7,12.6c-13.6,17.4-31.8,35.7-57.6,42c-4.3,1-11.1,1.9-13-0.6"/>
	<path class="st0" d="M57.4,317.5c15.1-11,31.2-16.4,50-17.8c4.1-0.3,7.4-3.5,7.8-7.6c0-0.1,0-0.1,0-0.2c0.5-5.2-3.9-9.6-9.1-9.2
		c-22,1.9-45.7,8-66.4,24.7c-6.1,4.9-6.3,9.5-5.5,10.1"/>
	<path class="st0" d="M399.6,398.1c-8.3,1.6-17.2-0.2-24.5-5.6c-13.9-10.3-16.9-30-6.6-43.9c10.3-13.9,30-16.9,43.9-6.6
		c10.6,7.9,14.8,21.1,11.7,33.2"/>
	<path class="st0" d="M387,336.6c-6.1-17.7-16.3-31.4-30.9-43.3c-3.2-2.6-4-7.1-2-10.7c0,0,0.1-0.1,0.1-0.1
		c2.6-4.5,8.7-5.7,12.7-2.3c17,14.1,32.8,33.3,40.2,58.8"/>
	<path class="st0" d="M362.8,369.1c-18.7-0.7-34.7-6.4-50.3-17c-3.4-2.3-8-1.8-10.8,1.2c0,0-0.1,0.1-0.1,0.1
		c-3.6,3.8-2.9,9.9,1.5,12.8c18.4,12.1,40.8,22,67.4,21.7"/>
	
		<ellipse transform="matrix(0.2136 -0.9769 0.9769 0.2136 -69.3441 149.0846)" class="st0" cx="57.9" cy="117.6" rx="31.4" ry="31.4"/>
	<path class="st0" d="M64.7,148.3c6.1,17.7,16.3,31.4,30.9,43.3c3.2,2.6,4,7.1,2,10.7c0,0-0.1,0.1-0.1,0.1
		c-2.6,4.5-8.7,5.7-12.7,2.3c-17-14.1-32.8-33.3-40.2-58.8"/>
	<path class="st0" d="M95.2,115.6c18.3-3.7,35.2-1.7,52.9,4.9c3.9,1.5,8.2-0.1,10.3-3.7c0,0,0.1-0.1,0.1-0.1
		c2.6-4.5,0.5-10.3-4.4-12.1c-20.7-7.5-44.8-12-70.6-5.6"/>
	<circle class="st0" cx="225.5" cy="451.7" r="31.4"/>
	<path class="st0" d="M246.1,428c10.6-15.4,15.5-31.8,16.3-50.6c0.2-4.1,3.3-7.5,7.4-8c0.1,0,0.1,0,0.2,0c5.2-0.6,9.7,3.6,9.4,8.8
		c-1.2,22-7.3,46.2-23.3,67.4"/>
	<path class="st0" d="M205.6,427.9c-10.6-15.4-15.5-31.7-16.3-50.6c-0.2-4.1-3.3-7.5-7.4-8c-0.1,0-0.1,0-0.2,0
		c-5.2-0.6-9.7,3.6-9.4,8.8c1.2,22,6.6,45.9,22.7,67.1"/>
	<path class="st0" d="M208.7,7.2c5-3.4,11.1-5.4,17.6-5.4c17.3,0,31.4,14.1,31.4,31.4s-14.1,31.4-31.4,31.4s-31.4-14.1-31.4-31.4
		c0-2.9,0.4-5.6,1.1-8.3"/>
	<path class="st0" d="M205.6,56.9c-10.6,15.4-15.5,31.8-16.3,50.6c-0.2,4.1-3.3,7.5-7.4,8c-0.1,0-0.1,0-0.2,0
		c-5.2,0.6-9.7-3.6-9.4-8.8c1.2-22,7.3-46.2,23.3-67.4"/>
	<path class="st0" d="M246.1,57c10.6,15.4,15.5,31.7,16.3,50.6c0.2,4.1,3.3,7.5,7.4,8c0.1,0,0.1,0,0.2,0c5.2,0.6,9.7-3.6,9.4-8.8
		c-1.2-22-6.6-45.9-22.7-67.1"/>
	<polygon class="st2" points="260.9,318.4 205.8,318.4 205.8,384.1 254.1,384.1 254.1,337.5 260.9,333.5 	"/>
	<polygon class="st0" points="256.9,314.4 201.8,314.4 201.8,380.1 250.1,380.1 250.1,333.5 256.9,329.5 	"/>
	<path class="st0" d="M415.3,120.8c0,0-24.8-6.8-30,14.3c-2.9,12,6.3,18.8,3.7,28.6"/>
	<path class="st0" d="M381.6,120.1c0,0-1.7,10.5,3.7,13.5"/>
	<path class="st0" d="M14.4,355.8c0,0-7.4,0.5-7,5.6c0.4,5.1,7.4,23.3,18.3,10.5"/>
	<path class="st0" d="M7.4,361.4c0,0-6.8,6-3.1,15.8s18.7,11.7,17.1,23.6c0,0,11.3-10.9-1.4-25.1"/>
	<path class="st0" d="M50.2,315.8c0,0-14.6,31.2,23,43.7"/>
	<path class="st0" d="M80.7,96c0,0-5,3.8-5.2,11.6s3.2,12.5,3.2,12.5s-12.4,4-4.2,24.4"/>
	<path class="st0" d="M204.7,454.1c0,0,1.7-23.2,12.3-19.6c10.9,3.8,25.7,2,26.5-8.5"/>
	<path class="st0" d="M210,424.3c0,0-4.8,7.1,1.7,10.3"/>
	<path class="st0" d="M367.1,383.9c0,0,11.1,13.4,7.6,21.4c0,0,16.4,5.2,27.7,2.2c20.8-5.6,33.2-23.5,22.4-44.8"/>
	<path class="st0" d="M223.5,8.6c0,0,6-8.3,19.8-1.8"/>
	<circle class="st0" cx="141.4" cy="183" r="11.8"/>
	<g>
		<polygon class="st0" points="289,138.5 261.6,151.8 260.2,148.7 287.6,135.4 		"/>
		<line class="st0" x1="261" y1="150.3" x2="255.3" y2="153"/>
		<polyline class="st0" points="271.7,140.5 282.5,135.4 285,140.7 		"/>
	</g>
	<polygon class="st0" points="323,170.7 344.3,206.4 298.8,233.6 281,203.8 287.3,200.2 283.7,194.1 	"/>
	<polyline class="st0" points="295.2,227.6 290.7,231.8 265,197.5 305.4,170.7 312,176.1 	"/>
	<g>
		
			<rect x="124.4" y="245.7" transform="matrix(0.8633 0.5047 -0.5047 0.8633 147.5253 -31.1802)" class="st0" width="13.9" height="22.1"/>
		<path class="st0" d="M125.7,262.9c0.2,0.1,3,1.7,3,1.7"/>
	</g>
</g>
<g id="Layer_2">
</g>
</svg>
