<?xml version="1.0" encoding="utf-8"?>
<!-- Generator: Adobe Illustrator 19.2.0, SVG Export Plug-In . SVG Version: 6.00 Build 0)  -->
<svg version="1.1" xmlns="http://www.w3.org/2000/svg" xmlns:xlink="http://www.w3.org/1999/xlink" x="0px" y="0px"
	 viewBox="0 0 416.3 337.3" style="enable-background:new 0 0 416.3 337.3;" xml:space="preserve">
<style type="text/css">
	.st0{fill:none;stroke:#433F22;stroke-width:2;stroke-miterlimit:10;}
	.st1{fill:#CCECF6;}
	.st2{fill:#F7D4D1;}
	.st3{fill:#FAEB8B;}
	.st4{fill:none;stroke:#353535;stroke-width:2;stroke-miterlimit:10;}
	.st5{fill:none;stroke:#0C9FD2;stroke-width:2;stroke-miterlimit:10;}
	.st6{fill:#FFE36C;}
	.st7{opacity:0.3;fill:#009FD1;}
	.st8{opacity:0.3;}
	.st9{fill:#D63227;}
	.st10{fill:#EEEDED;}
	.st11{fill:#009FD1;}
	.st12{opacity:0.7;fill:#D63227;}
	.st13{fill:none;stroke:#FFFFFF;stroke-width:2;stroke-miterlimit:10;}
	.st14{opacity:0.3;fill:#D63227;}
	.st15{opacity:0.3;fill:#B2D235;}
	.st16{fill:#FFFFFF;stroke:#353535;stroke-width:2;stroke-miterlimit:10;}
</style>
<g id="Layer_1">
	<path class="st1" d="M110.6,166.8l-38.1,48.5l12,4.1l4.8,2.5l2.6,1.6l24.5-32.9C116.5,190.6,123.3,176.2,110.6,166.8z"/>
	<path class="st2" d="M260,75.2l32,49.3c0,0,8.1,12.7-6,23.6l-33.7-47.1L260,75.2z"/>
	<path class="st2" d="M176.7,105.9l-31.6,44c0,0-9.7,11.6-24.3,1.4l36-52.9L176.7,105.9z"/>
	<path class="st3" d="M268.9,241.6l23.1-1.7l9.1,12.1c0,0-2.6,6.2-3.2,12.3c-0.5,5.8-0.1,12.8-0.2,12.8c-0.4,0-13.7,0-13.7,0
		l-19.8-22.4L268.9,241.6z"/>
	<path class="st3" d="M297.7,165.6l35.1,51.9l-13.2,9.2c0,0-20.9-27.7-26.9-35.6C286.7,183.1,290.6,168.8,297.7,165.6z"/>
	<path class="st3" d="M302.5,295.9h-81.3c0,0-2.7,21.4,22.5,21.4h74.6l-10.5-10.7L302.5,295.9z"/>
	<path class="st2" d="M236.2,111c-3.4-3.4-4.1-1.8-4.1-1.8l-3,1.8c-30.3,14.4-50.1,3.2-54.4,1s-5.3,3.2-5.3,3.2l18.2,39.9l40.6,0.7
		l14.7-33.6C242.8,122.1,239.6,114.4,236.2,111z M205.4,139.4c-5.5,0-5.4-8.5,0-8.5C210.8,130.9,210.8,139.4,205.4,139.4z"/>
	<polygon class="st1" points="144.7,221.1 111.9,246 114.4,251.4 152.3,246 160,228.4 	"/>
	<path class="st2" d="M253.5,29.6c-0.2,0.7-0.4,1.4-0.6,2.1c-8,26.2-33.5,39.1-58.3,45.8c-12.6,3.4-26,6.5-39.1,7.6
		c6.6,24.9,29.3,43.2,56.3,43.2c32.1,0,58.2-26.1,58.2-58.2C269.9,54.4,263.6,40.1,253.5,29.6z"/>
	<path class="st3" d="M326.9,301.3c16.8-13.7,31-32.2,40.6-51.7c3.9-8,6.9-16.3,8.9-24.8c-3.2-0.5-6.4-0.8-9.7-0.8
		c-32.1,0-58.2,26.1-58.2,58.2c0,9.8,2.4,19.1,6.7,27.2C319.4,307.1,323.3,304.2,326.9,301.3z"/>
	<path class="st1" d="M192.4,295.9h-66.3c1.9-5.8,3-12,3-18.5c0-32.1-26.1-58.2-58.2-58.2c-1.1,0-2.2,0-3.2,0.1
		c2.2,4.9,4.2,9.8,5.9,14.9c6.3,18.2,11.3,39.3,9.2,58.7c-1.7,15.8-8.4,30-18.2,42.3c0,0-0.1,0.1-0.1,0.1c2.1,0.2,4.3,0.4,6.5,0.4
		c16.7,0,31.7-7,42.3-18.3H170C195.1,317.3,192.4,295.9,192.4,295.9z"/>
	<path class="st0" d="M96.8,317.3h76.8c10.5,0,19-8.5,19-19V296c0-10.5-8.5-19-19-19H118"/>
	<path class="st0" d="M91.9,223.6l22.7-29.9c6.4-8.5,4.6-20.6-4-26.8l0,0c-8.5-6.1-20.3-4.2-26.4,4.2l-31.6,43.4"/>
	<path class="st0" d="M145.7,79.3l-30.9,45.5c-5.8,8.5-3.7,20,4.6,26l1,0.7c8.6,6.2,20.5,4.2,26.6-4.5l25.3-36"/>
	<path class="st0" d="M234.1,107.9l24.1,36c6,8.9,18.1,11.1,26.8,4.8l0.9-0.7c8.2-5.9,10.3-17.3,4.8-25.8l-33-50.5"/>
	<path class="st0" d="M297.6,277.1h-57.5c-10.5,0-19,8.5-19,19v2.3c0,10.5,8.5,19,19,19h78.1"/>
	<path class="st0" d="M356.2,214l-32.1-44.2c-6.1-8.4-17.9-10.3-26.4-4.2l0,0c-8.7,6.2-10.5,18.4-4,26.9l25.5,33.6"/>
	<circle class="st0" cx="200.7" cy="60.2" r="58.2"/>
	<circle class="st0" cx="355.7" cy="272.2" r="58.2"/>
	<circle class="st0" cx="60" cy="272.2" r="58.2"/>
	<polyline class="st0" points="283.9,277.1 264.2,254.7 277.9,216.7 308.7,212.2 	"/>
	<polyline class="st0" points="141.7,242.4 146.4,252.5 127.9,277.4 	"/>
	<polyline class="st0" points="99.5,214 129.3,215.9 133.5,224.8 	"/>
	<polyline class="st0" points="166.1,119.8 181.5,155.8 228.5,155.8 242.8,121.1 	"/>
	<polyline class="st0" points="110.8,243.8 139.9,219.4 154.1,224.4 148.9,241.2 113.5,249.3 	"/>
	<line class="st0" x1="203.4" y1="118.4" x2="203.4" y2="130.5"/>
	<line class="st0" x1="203.4" y1="139.9" x2="203.4" y2="155.8"/>
	<circle class="st0" cx="203.3" cy="135" r="5"/>
	<line class="st0" x1="307.8" y1="239.2" x2="269.1" y2="241.1"/>
	<line class="st0" x1="291.3" y1="240" x2="301.1" y2="252"/>
</g>
<g id="Layer_2">
</g>
</svg>
